{
  "accessors": [
    {
      "bufferView": 2,
      "componentType": 5126,
      "count": 32334,
      "max": [
        259.33392333984375,
        107.51474761962891,
        245.05584716796875
      ],
      "min": [
        -259.33392333984375,
        -107.51474761962891,
        -245.05584716796875
      ],
      "type": "VEC3"
    },
    {
      "bufferView": 2,
      "byteOffset": 388008,
      "componentType": 5126,
      "count": 32334,
      "max": [
        1,
        1,
        1
      ],
      "min": [
        -1,
        -1,
        -1
      ],
      "type": "VEC3"
    },
    {
      "bufferView": 1,
      "componentType": 5126,
      "count": 32334,
      "max": [
        0.99314600229263306,
        0.99316501617431641
      ],
      "min": [
        0.0068540000356733799,
        0.006743013858795166
      ],
      "type": "VEC2"
    },
    {
      "bufferView": 1,
      "byteOffset": 258672,
      "componentType": 5126,
      "count": 32334,
      "max": [
        0.99314600229263306,
        0.99316501617431641
      ],
      "min": [
        0.0068540000356733799,
        0.006743013858795166
      ],
      "type": "VEC2"
    },
    {
      "bufferView": 1,
      "byteOffset": 517344,
      "componentType": 5126,
      "count": 32334,
      "max": [
        0.99314600229263306,
        0.99316501617431641
      ],
      "min": [
        0.0068540000356733799,
        0.006743013858795166
      ],
      "type": "VEC2"
    },
    {
      "bufferView": 1,
      "byteOffset": 776016,
      "componentType": 5126,
      "count": 32334,
      "max": [
        0.99314600229263306,
        0.99316501617431641
      ],
      "min": [
        0.0068540000356733799,
        0.006743013858795166
      ],
      "type": "VEC2"
    },
    {
      "bufferView": 1,
      "byteOffset": 1034688,
      "componentType": 5126,
      "count": 32334,
      "max": [
        0.99314600229263306,
        0.99316501617431641
      ],
      "min": [
        0.0068540000356733799,
        0.006743013858795166
      ],
      "type": "VEC2"
    },
    {
      "bufferView": 1,
      "byteOffset": 1293360,
      "componentType": 5126,
      "count": 32334,
      "max": [
        0.99314600229263306,
        0.99316501617431641
      ],
      "min": [
        0.0068540000356733799,
        0.006743013858795166
      ],
      "type": "VEC2"
    },
    {
      "bufferView": 1,
      "byteOffset": 1552032,
      "componentType": 5126,
      "count": 32334,
      "max": [
        0.99314600229263306,
        0.99316501617431641
      ],
      "min": [
        0.0068540000356733799,
        0.006743013858795166
      ],
      "type": "VEC2"
    },
    {
      "bufferView": 0,
      "componentType": 5125,
      "count": 78516,
      "max": [
        32333
      ],
      "min": [
        0
      ],
      "type": "SCALAR"
    }
  ],
  "asset": {
    "extras": {
      "author": "Wholock (https://sketchfab.com/wholock)",
      "license": "CC-BY-4.0 (http://creativecommons.org/licenses/by/4.0/)",
      "source": "https://sketchfab.com/3d-models/star-trek-bird-of-prey-enterprise-3af27d1d17f84f08a1d7dbbec811b042",
      "title": "Star Trek - Bird Of Prey (Enterprise)"
    },
    "generator": "Sketchfab-10.28.0",
    "version": "2.0"
  },
  "bufferViews": [
    {
      "buffer": 0,
      "byteLength": 314064,
      "byteOffset": 0,
      "name": "floatBufferViews",
      "target": 34963
    },
    {
      "buffer": 0,
      "byteLength": 1810704,
      "byteOffset": 314064,
      "byteStride": 8,
      "name": "floatBufferViews",
      "target": 34962
    },
    {
      "buffer": 0,
      "byteLength": 776016,
      "byteOffset": 2124768,
      "byteStride": 12,
      "name": "floatBufferViews",
      "target": 34962
    }
  ],
  "buffers": [
    {
      "byteLength": 2900784,
      "uri": "scene.bin"
    }
  ],
  "extensionsRequired": [
    "KHR_materials_pbrSpecularGlossiness"
  ],
  "extensionsUsed": [
    "KHR_materials_pbrSpecularGlossiness"
  ],
  "images": [
    {
      "uri": "textures/Klingon_Bird_of_Prey_diffuse_diffuse.png"
    },
    {
      "uri": "textures/Klingon_Bird_of_Prey_diffuse_specularGlossiness.png"
    },
    {
      "uri": "textures/Klingon_Bird_of_Prey_diffuse_emissive.png"
    }
  ],
  "materials": [
    {
      "doubleSided": true,
      "emissiveFactor": [
        1,
        1,
        1
      ],
      "emissiveTexture": {
        "index": 2,
        "texCoord": 2
      },
      "extensions": {
        "KHR_materials_pbrSpecularGlossiness": {
          "diffuseFactor": [
            1,
            1,
            1,
            1
          ],
          "diffuseTexture": {
            "index": 0,
            "texCoord": 0
          },
          "glossinessFactor": 1,
          "specularFactor": [
            0.20235576309213288,
            0.20235576309213288,
            0.20235576309213288
          ],
          "specularGlossinessTexture": {
            "index": 1,
            "texCoord": 1
          }
        }
      },
      "name": "Klingon_Bird_of_Prey_diffuse"
    }
  ],
  "meshes": [
    {
      "name": "BirdOfPrey_ENT_Klingon_Bird_of_Prey_diffuse_0",
      "primitives": [
        {
          "attributes": {
            "NORMAL": 1,
            "POSITION": 0,
            "TEXCOORD_0": 2,
            "TEXCOORD_1": 3,
            "TEXCOORD_2": 4,
            "TEXCOORD_3": 5,
            "TEXCOORD_4": 6,
            "TEXCOORD_5": 7,
            "TEXCOORD_6": 8
          },
          "indices": 9,
          "material": 0,
          "mode": 4
        }
      ]
    }
  ],
  "nodes": [
    {
      "children": [
        1
      ],
      "name": "RootNode (gltf orientation matrix)",
      "rotation": [
        -0.70710678118654746,
        -0,
        -0,
        0.70710678118654757
      ]
    },
    {
      "children": [
        2
      ],
      "matrix": [
        -1,
        -2.832769343193999e-16,
        -1.6081226229577292e-16,
        0,
        2.832769343193999e-16,
        -1,
        1.7853747624282703e-32,
        0,
        -1.6081226229577292e-16,
        -2.770065955897755e-32,
        1,
        0,
        0.000823974609375,
        -0.000396728515625,
        5.4210108624275222e-20,
        1
      ],
      "name": "RootNode (model correction matrix)"
    },
    {
      "children": [
        3
      ],
      "matrix": [
        1,
        0,
        0,
        0,
        0,
        0,
        1,
        0,
        0,
        -1,
        0,
        0,
        0,
        0,
        0,
        1
      ],
      "name": "2c1f4622f24c4927b39741593f1551cf.fbx"
    },
    {
      "children": [
        4,
        6,
        9
      ],
      "name": "RootNode"
    },
    {
      "children": [
        5
      ],
      "name": "BirdOfPrey_ENT"
    },
    {
      "mesh": 0,
      "name": "BirdOfPrey_ENT_Klingon_Bird_of_Prey_diffuse_0"
    },
    {
      "children": [
        7
      ],
      "matrix": [
        0.70710678118654757,
        0,
        0.70710678118654746,
        0,
        -0.57922796533956922,
        0.57357643635104594,
        0.57922796533956944,
        0,
        -0.4055797876726388,
        -0.81915204428899202,
        0.4055797876726388,
        0,
        -200,
        200,
        200,
        1
      ],
      "name": "Light"
    },
    {
      "children": [
        8
      ],
      "matrix": [
        1,
        0,
        0,
        0,
        0,
        2.2204460492503131e-16,
        1,
        0,
        0,
        -1,
        2.2204460492503131e-16,
        0,
        0,
        0,
        0,
        1
      ],
      "name": ""
    },
    {
      "name": ""
    },
    {
      "children": [
        10
      ],
      "matrix": [
        2.2204460492503131e-16,
        0,
        -1,
        0,
        0,
        1,
        0,
        0,
        1,
        0,
        2.2204460492503131e-16,
        0,
        0,
        0,
        1240.898193359375,
        1
      ],
      "name": "Camera"
    },
    {
      "name": ""
    }
  ],
  "samplers": [
    {
      "magFilter": 9729,
      "minFilter": 9987,
      "wrapS": 10497,
      "wrapT": 10497
    }
  ],
  "scene": 0,
  "scenes": [
    {
      "name": "OSG_Scene",
      "nodes": [
        0
      ]
    }
  ],
  "textures": [
    {
      "sampler": 0,
      "source": 0
    },
    {
      "sampler": 0,
      "source": 1
    },
    {
      "sampler": 0,
      "source": 2
    }
  ]
}

